<svg width="92" height="85" viewBox="0 0 92 85" fill="none" xmlns="http://www.w3.org/2000/svg">
<path d="M67.9881 52.8939C68.1247 52.8939 68.2116 53.0438 68.1371 53.1562L66.5355 55.9296C66.4983 55.9796 66.4486 56.017 66.3865 56.017L63.2081 56.0045C63.0715 56.0045 62.9846 55.8546 63.0591 55.7422L64.1269 53.9058L59.7814 45.948L50.3828 62.2633C49.9854 62.9629 50.4821 63.8374 51.2767 63.8374H70.3099C70.6823 63.8374 71.03 63.6375 71.2038 63.3127L80.8011 46.6601C81.1984 45.9605 80.7018 45.086 79.9071 45.086H61.6562L65.9147 52.8939" fill="#FECB33"/>
<path d="M34.379 67.4353C34.3045 67.5602 34.1431 67.5477 34.0686 67.4353L32.4918 64.6494C32.4545 64.5994 32.4669 64.5245 32.4918 64.4745L32.7525 64.0248L23.9001 63.9373C23.5153 63.9373 23.1552 64.1372 22.9566 64.462L12.7261 81.3646C12.3039 82.0642 12.813 82.9636 13.6572 82.9636L34.2921 83.1011C34.6769 83.1011 34.0313 82.9137 34.23 82.5889L44.7957 65.7488L35.484 65.5239" fill="#FECB33"/>
<path d="M30.5177 44.0991H11.4969C11.1245 44.0991 10.7768 44.2989 10.5906 44.6238L1.01813 61.2639C0.60841 61.9635 1.11745 62.8505 1.92447 62.8505H20.9453C21.3177 62.8505 21.6654 62.6506 21.8516 62.3258L31.4365 45.6856C31.8338 44.986 31.3247 44.0991 30.5177 44.0991Z" fill="#FECB33"/>
<path d="M34.379 67.4353C34.3046 67.5602 34.1431 67.5477 34.0687 67.4353L32.4919 64.6495C32.4546 64.5995 32.467 64.5245 32.4919 64.4746L34.0935 61.7262C34.168 61.6012 34.3294 61.6137 34.4039 61.7262L35.3723 63.4377L44.9075 63.675L35.1985 46.5976C34.7888 45.873 33.7458 45.8605 33.3237 46.5976L23.3167 63.9624C23.1181 64.2997 23.1181 64.7119 23.3167 65.0492L33.2741 82.5389C33.6838 83.2635 34.7267 83.276 35.1488 82.5389L44.8454 65.7363L35.4965 65.5114" fill="#EAA536"/>
<path d="M37.0483 40.1014H55.8332C56.2057 40.1014 56.5658 39.9015 56.752 39.5767L66.6224 22.874C67.0322 22.1744 66.5231 21.3124 65.6913 21.3124L46.0124 21.3499C45.64 21.3499 45.2923 21.5498 45.0937 21.8746L40.9469 28.9954H41.7166C41.7787 28.9954 41.8408 29.0329 41.8656 29.0829L43.4548 31.8562C43.5293 31.9812 43.4424 32.1311 43.3058 32.1311H41.3566" fill="#EAA536"/>
<path d="M37.0483 40.1014L55.4732 40.1139C56.2926 40.1139 56.8016 39.2269 56.3919 38.5148L46.8319 21.8871C46.6456 21.5623 46.298 21.3499 45.9131 21.3499L26.7309 21.3374C25.9115 21.3374 25.4024 22.2244 25.8121 22.9365L35.1735 39.2269L39.5066 31.2316L38.3768 29.2702C38.3023 29.1453 38.3892 28.9954 38.5258 28.9954L41.729 29.0079C41.7911 29.0079 41.8532 29.0454 41.878 29.0953L43.4672 31.8687C43.5417 31.9936 43.4548 32.1436 43.3182 32.1436H41.369" fill="#FECB33"/>
<path d="M35.3101 1.39914L25.7252 18.0394C25.3154 18.7389 25.8245 19.6259 26.6315 19.6259H45.6523C46.0248 19.6259 46.3724 19.426 46.5587 19.1012L56.1436 2.46102C56.5533 1.76143 56.0442 0.874451 55.2372 0.874451H36.2164C35.8439 0.874451 35.4963 1.07433 35.3101 1.39914Z" fill="#FECB33"/>
<path d="M80.2796 84.113C80.652 84.113 80.9997 83.9131 81.1859 83.5883L90.9819 67.0105C91.3916 66.3234 90.8825 65.4614 90.0631 65.4614L70.5457 65.4989C70.1732 65.4989 69.8256 65.6988 69.6394 66.0236L60.0421 82.5389C59.6323 83.226 60.0793 84.113 60.8987 84.1005L80.2796 84.113Z" fill="#EAA536"/>
<path d="M80.8508 82.5389L71.3652 66.0486C71.179 65.7238 70.8314 65.5239 70.4589 65.5239L51.4257 65.5114C50.6187 65.5114 50.1096 66.3984 50.5193 67.098L60.0049 83.5883C60.1911 83.9131 60.5388 84.113 60.9113 84.113L79.9445 84.1255C80.7515 84.1255 81.2481 83.2385 80.8508 82.5389Z" fill="#FECB33"/>
</svg>
